<svg width="1240" height="171" viewBox="0 0 1240 171" fill="none" xmlns="http://www.w3.org/2000/svg">
<path fill-rule="evenodd" clip-rule="evenodd" d="M84 0V171H85V0H84ZM1 0V171H0V0H1Z" fill="url(#paint0_linear_94_68)"/>
<path fill-rule="evenodd" clip-rule="evenodd" d="M189 0V171H190V0H189ZM106 0V171H105V0H106Z" fill="url(#paint1_linear_94_68)"/>
<path fill-rule="evenodd" clip-rule="evenodd" d="M294 0V171H295V0H294ZM211 0V171H210V0H211Z" fill="url(#paint2_linear_94_68)"/>
<path fill-rule="evenodd" clip-rule="evenodd" d="M399 0V171H400V0H399ZM316 0V171H315V0H316Z" fill="url(#paint3_linear_94_68)"/>
<path fill-rule="evenodd" clip-rule="evenodd" d="M504 0V171H505V0H504ZM421 0V171H420V0H421Z" fill="url(#paint4_linear_94_68)"/>
<path fill-rule="evenodd" clip-rule="evenodd" d="M609 0V171H610V0H609ZM526 0V171H525V0H526Z" fill="url(#paint5_linear_94_68)"/>
<path fill-rule="evenodd" clip-rule="evenodd" d="M714 0V171H715V0H714ZM631 0V171H630V0H631Z" fill="url(#paint6_linear_94_68)"/>
<path fill-rule="evenodd" clip-rule="evenodd" d="M819 0V171H820V0H819ZM736 0V171H735V0H736Z" fill="url(#paint7_linear_94_68)"/>
<path fill-rule="evenodd" clip-rule="evenodd" d="M924 0V171H925V0H924ZM841 0V171H840V0H841Z" fill="url(#paint8_linear_94_68)"/>
<path fill-rule="evenodd" clip-rule="evenodd" d="M1029 0V171H1030V0H1029ZM946 0V171H945V0H946Z" fill="url(#paint9_linear_94_68)"/>
<path fill-rule="evenodd" clip-rule="evenodd" d="M1134 0V171H1135V0H1134ZM1051 0V171H1050V0H1051Z" fill="url(#paint10_linear_94_68)"/>
<path fill-rule="evenodd" clip-rule="evenodd" d="M1239 0V171H1240V0H1239ZM1156 0V171H1155V0H1156Z" fill="url(#paint11_linear_94_68)"/>
<defs>
<linearGradient id="paint0_linear_94_68" x1="620" y1="0" x2="620" y2="171" gradientUnits="userSpaceOnUse">
<stop stop-color="#318B89"/>
<stop offset="1" stop-color="#318B89" stop-opacity="0"/>
</linearGradient>
<linearGradient id="paint1_linear_94_68" x1="620" y1="0" x2="620" y2="171" gradientUnits="userSpaceOnUse">
<stop stop-color="#318B89"/>
<stop offset="1" stop-color="#318B89" stop-opacity="0"/>
</linearGradient>
<linearGradient id="paint2_linear_94_68" x1="620" y1="0" x2="620" y2="171" gradientUnits="userSpaceOnUse">
<stop stop-color="#318B89"/>
<stop offset="1" stop-color="#318B89" stop-opacity="0"/>
</linearGradient>
<linearGradient id="paint3_linear_94_68" x1="620" y1="0" x2="620" y2="171" gradientUnits="userSpaceOnUse">
<stop stop-color="#318B89"/>
<stop offset="1" stop-color="#318B89" stop-opacity="0"/>
</linearGradient>
<linearGradient id="paint4_linear_94_68" x1="620" y1="0" x2="620" y2="171" gradientUnits="userSpaceOnUse">
<stop stop-color="#318B89"/>
<stop offset="1" stop-color="#318B89" stop-opacity="0"/>
</linearGradient>
<linearGradient id="paint5_linear_94_68" x1="620" y1="0" x2="620" y2="171" gradientUnits="userSpaceOnUse">
<stop stop-color="#318B89"/>
<stop offset="1" stop-color="#318B89" stop-opacity="0"/>
</linearGradient>
<linearGradient id="paint6_linear_94_68" x1="620" y1="0" x2="620" y2="171" gradientUnits="userSpaceOnUse">
<stop stop-color="#318B89"/>
<stop offset="1" stop-color="#318B89" stop-opacity="0"/>
</linearGradient>
<linearGradient id="paint7_linear_94_68" x1="620" y1="0" x2="620" y2="171" gradientUnits="userSpaceOnUse">
<stop stop-color="#318B89"/>
<stop offset="1" stop-color="#318B89" stop-opacity="0"/>
</linearGradient>
<linearGradient id="paint8_linear_94_68" x1="620" y1="0" x2="620" y2="171" gradientUnits="userSpaceOnUse">
<stop stop-color="#318B89"/>
<stop offset="1" stop-color="#318B89" stop-opacity="0"/>
</linearGradient>
<linearGradient id="paint9_linear_94_68" x1="620" y1="0" x2="620" y2="171" gradientUnits="userSpaceOnUse">
<stop stop-color="#318B89"/>
<stop offset="1" stop-color="#318B89" stop-opacity="0"/>
</linearGradient>
<linearGradient id="paint10_linear_94_68" x1="620" y1="0" x2="620" y2="171" gradientUnits="userSpaceOnUse">
<stop stop-color="#318B89"/>
<stop offset="1" stop-color="#318B89" stop-opacity="0"/>
</linearGradient>
<linearGradient id="paint11_linear_94_68" x1="620" y1="0" x2="620" y2="171" gradientUnits="userSpaceOnUse">
<stop stop-color="#318B89"/>
<stop offset="1" stop-color="#318B89" stop-opacity="0"/>
</linearGradient>
</defs>
</svg>
