<svg width="108" height="81" viewBox="0 0 108 81" fill="none" xmlns="http://www.w3.org/2000/svg">
<path d="M75.3305 54.6776L55.8813 79.5813L55.8221 79.5813L55.6772 79.8281C55.1509 80.724 53.8321 80.724 53.3059 79.8281L53.2892 79.7996L53.2688 79.7735L33.6695 54.6776C33.1806 53.8017 33.815 52.6991 34.8703 52.6991L41.8198 52.6991C43.1213 52.6991 44.1905 51.6577 44.1905 50.3575L44.1905 32.8416C44.1905 32.1085 44.7973 31.5 45.5612 31.5L49.8275 31.5C50.5914 31.5 51.1982 32.1085 51.1982 32.8416L51.1982 59.6655C51.1982 60.9656 52.2675 62.0071 53.5689 62.0071L55.4311 62.0071C56.7325 62.0071 57.8018 60.9656 57.8018 59.6655L57.8018 32.8416C57.8018 32.1085 58.4086 31.5 59.1725 31.5L63.4387 31.5C64.2027 31.5 64.8095 32.1085 64.8095 32.8416L64.8095 50.3575C64.8095 51.6577 65.8787 52.6991 67.1802 52.6991L74.1297 52.6991C75.185 52.6991 75.8194 53.8017 75.3305 54.6776Z" stroke="#318B89"/>
<path d="M3.52 5.472H6.04L4.768 1.632L3.52 5.472ZM8.632 9H7.312C7.252 9 7.204 8.964 7.18 8.904L6.448 6.696H3.124L2.404 8.904C2.392 8.964 2.344 9 2.284 9H0.988C0.94 9 0.904 8.952 0.928 8.904L3.82 0.696C3.844 0.636 3.892 0.599999 3.952 0.599999H5.716C5.776 0.599999 5.824 0.636 5.848 0.696L8.692 8.904C8.716 8.952 8.68 9 8.632 9ZM14.0412 3.192C14.0412 2.22 13.4292 1.728 12.3612 1.728H10.4772L10.4532 4.608H12.3972C13.3332 4.608 14.0412 4.2 14.0412 3.192ZM13.9572 8.916L13.0212 7.32L11.9772 5.748H10.4652L10.4892 8.904C10.4892 8.952 10.4412 9 10.3932 9H9.09719C9.04919 9 9.00119 8.952 9.00119 8.904L9.03719 4.752L9.00119 0.696C9.00119 0.648 9.04919 0.599999 9.09719 0.599999H12.2772C14.2812 0.599999 15.4692 1.464 15.4692 3.168C15.4692 4.452 14.7492 5.28 13.5372 5.604L15.6732 8.916C15.6972 8.952 15.6732 9 15.6252 9H14.1012C14.0412 9 13.9812 8.964 13.9572 8.916ZM21.1428 3.192C21.1428 2.22 20.5308 1.728 19.4628 1.728H17.5788L17.5548 4.608H19.4988C20.4348 4.608 21.1428 4.2 21.1428 3.192ZM21.0588 8.916L20.1228 7.32L19.0788 5.748H17.5668L17.5908 8.904C17.5908 8.952 17.5428 9 17.4948 9H16.1988C16.1508 9 16.1028 8.952 16.1028 8.904L16.1388 4.752L16.1028 0.696C16.1028 0.648 16.1508 0.599999 16.1988 0.599999H19.3788C21.3828 0.599999 22.5708 1.464 22.5708 3.168C22.5708 4.452 21.8508 5.28 20.6388 5.604L22.7747 8.916C22.7988 8.952 22.7747 9 22.7268 9H21.2028C21.1428 9 21.0828 8.964 21.0588 8.916ZM25.5981 5.472H28.1181L26.8461 1.632L25.5981 5.472ZM30.7101 9H29.3901C29.3301 9 29.2821 8.964 29.2581 8.904L28.5261 6.696H25.2021L24.4821 8.904C24.4701 8.964 24.4221 9 24.3621 9H23.0661C23.0181 9 22.9821 8.952 23.0061 8.904L25.8981 0.696C25.9221 0.636 25.9701 0.599999 26.0301 0.599999H27.7941C27.8541 0.599999 27.9021 0.636 27.9261 0.696L30.7701 8.904C30.7941 8.952 30.7581 9 30.7101 9ZM37.6489 6.492C37.6489 8.244 36.2929 9.168 34.2409 9.168C32.0689 9.168 30.6769 8.208 30.5929 6.24C30.5929 6.192 30.6409 6.144 30.6889 6.144H32.0329C32.0809 6.144 32.1289 6.192 32.1409 6.24C32.2369 7.32 32.7649 8.004 34.2769 8.004C35.4409 8.004 36.1849 7.632 36.1849 6.696C36.1849 4.62 30.7609 6.204 30.7609 2.916C30.7609 1.368 31.9849 0.431999 33.9889 0.431999C35.9329 0.431999 37.2049 1.224 37.4209 2.988C37.4329 3.036 37.3849 3.084 37.3369 3.084H35.9929C35.9449 3.084 35.8969 3.048 35.8849 2.988C35.7889 2.088 35.1409 1.608 33.9409 1.608C32.9209 1.608 32.2129 1.968 32.2129 2.772C32.2129 4.728 37.6489 3.192 37.6489 6.492ZM41.3339 9H39.9899C39.9419 9 39.8939 8.952 39.8939 8.904L39.9539 4.812L39.9179 1.752H37.5779C37.5299 1.752 37.4819 1.704 37.4819 1.656V0.696C37.4819 0.648 37.5299 0.599999 37.5779 0.599999H43.7579C43.8059 0.599999 43.8539 0.648 43.8539 0.696V1.656C43.8539 1.704 43.8059 1.752 43.7579 1.752H41.4179L41.3699 4.812L41.4299 8.904C41.4299 8.952 41.3819 9 41.3339 9ZM45.4028 5.472H47.9228L46.6508 1.632L45.4028 5.472ZM50.5148 9H49.1948C49.1348 9 49.0868 8.964 49.0628 8.904L48.3308 6.696H45.0068L44.2868 8.904C44.2748 8.964 44.2268 9 44.1668 9H42.8708C42.8228 9 42.7868 8.952 42.8108 8.904L45.7028 0.696C45.7268 0.636 45.7748 0.599999 45.8348 0.599999H47.5988C47.6588 0.599999 47.7068 0.636 47.7308 0.696L50.5748 8.904C50.5988 8.952 50.5628 9 50.5148 9ZM58.9733 3.24C58.9733 4.992 57.7853 5.952 55.8893 5.952H54.3053L54.3293 8.904C54.3293 8.952 54.2813 9 54.2333 9H52.9253C52.8773 9 52.8293 8.952 52.8293 8.904L52.8653 4.752L52.8293 0.696C52.8293 0.648 52.8773 0.599999 52.9253 0.599999H55.8893C57.8213 0.599999 58.9733 1.488 58.9733 3.24ZM54.3173 1.728L54.2933 4.788V4.824H55.9853C56.8853 4.824 57.5453 4.38 57.5453 3.264C57.5453 2.22 56.9693 1.728 55.9373 1.728H54.3173ZM64.5138 3.192C64.5138 2.22 63.9018 1.728 62.8338 1.728H60.9498L60.9258 4.608H62.8698C63.8058 4.608 64.5138 4.2 64.5138 3.192ZM64.4298 8.916L63.4938 7.32L62.4498 5.748H60.9378L60.9618 8.904C60.9618 8.952 60.9138 9 60.8658 9H59.5698C59.5218 9 59.4738 8.952 59.4738 8.904L59.5098 4.752L59.4738 0.696C59.4738 0.648 59.5218 0.599999 59.5698 0.599999H62.7498C64.7538 0.599999 65.9418 1.464 65.9418 3.168C65.9418 4.452 65.2218 5.28 64.0098 5.604L66.1458 8.916C66.1698 8.952 66.1458 9 66.0978 9H64.5738C64.5138 9 64.4538 8.964 64.4298 8.916ZM68.9692 5.472H71.4892L70.2172 1.632L68.9692 5.472ZM74.0812 9H72.7612C72.7012 9 72.6532 8.964 72.6292 8.904L71.8972 6.696H68.5732L67.8532 8.904C67.8412 8.964 67.7932 9 67.7332 9H66.4372C66.3892 9 66.3532 8.952 66.3772 8.904L69.2692 0.696C69.2932 0.636 69.3412 0.599999 69.4012 0.599999H71.1652C71.2252 0.599999 71.2732 0.636 71.2972 0.696L74.1412 8.904C74.1652 8.952 74.1292 9 74.0812 9ZM83.0677 6.48C83.0677 8.28 81.5797 9 79.9357 9H76.4917C76.4437 9 76.3957 8.952 76.3957 8.904L76.4437 4.74L76.3957 0.696C76.3957 0.648 76.4437 0.599999 76.4917 0.599999H79.8997C81.6037 0.599999 82.8277 1.248 82.8277 2.652C82.8277 3.684 82.2877 4.26 81.2917 4.524C82.5037 4.776 83.0557 5.52 83.0677 6.48ZM77.8837 1.692L77.8477 4.056H79.8997C80.7997 4.056 81.3517 3.684 81.3517 2.88C81.3517 2.064 80.7397 1.692 79.8997 1.692H77.8837ZM77.8477 5.136L77.8837 7.908H79.8997C80.8717 7.908 81.5797 7.56 81.5797 6.48C81.5797 5.496 80.7997 5.136 79.8997 5.136H77.8477ZM85.5395 5.472H88.0595L86.7875 1.632L85.5395 5.472ZM90.6515 9H89.3315C89.2715 9 89.2235 8.964 89.1995 8.904L88.4675 6.696H85.1435L84.4235 8.904C84.4115 8.964 84.3635 9 84.3035 9H83.0075C82.9595 9 82.9235 8.952 82.9475 8.904L85.8395 0.696C85.8635 0.636 85.9115 0.599999 85.9715 0.599999H87.7355C87.7955 0.599999 87.8435 0.636 87.8675 0.696L90.7115 8.904C90.7355 8.952 90.6995 9 90.6515 9ZM92.4727 9H91.1767C91.1287 9 91.0807 8.952 91.0807 8.904L91.1287 4.764L91.0807 0.696C91.0807 0.648 91.1287 0.599999 91.1767 0.599999H92.4727C92.5207 0.599999 92.5687 0.648 92.5687 0.696L92.5207 4.764L92.5687 8.904C92.5687 8.952 92.5207 9 92.4727 9ZM100.204 9H98.6196C98.5596 9 98.4996 8.964 98.4756 8.916L96.6036 5.796L94.6716 8.916C94.6476 8.964 94.5876 9 94.5276 9H93.0516C93.0036 9 92.9796 8.952 93.0036 8.916L95.7636 4.584L93.2436 0.684C93.2196 0.648 93.2436 0.599999 93.2916 0.599999H94.8636C94.9236 0.599999 94.9836 0.636 95.0076 0.684L96.6636 3.36L98.3076 0.684C98.3316 0.636 98.3916 0.599999 98.4516 0.599999H99.9276C99.9756 0.599999 99.9996 0.648 99.9756 0.684L97.4796 4.62L100.252 8.916C100.276 8.952 100.252 9 100.204 9ZM107.803 4.824C107.803 7.416 106.159 9.168 103.675 9.168C101.179 9.168 99.5472 7.404 99.5472 4.812C99.5472 2.136 101.167 0.431999 103.675 0.431999C106.159 0.431999 107.803 2.112 107.803 4.824ZM101.071 4.824C101.071 6.78 102.031 7.98 103.675 7.98C105.331 7.98 106.291 6.792 106.291 4.824C106.291 2.856 105.331 1.62 103.675 1.62C102.007 1.62 101.071 2.82 101.071 4.824Z" fill="#318B89"/>
</svg>
