<svg width="503" height="38" viewBox="0 0 503 38" fill="none" xmlns="http://www.w3.org/2000/svg">
<rect width="133" height="38" rx="8" fill="#10302C"/>
<path d="M15.6 16H32.4M15.6 22H32.4M23.5 10C21.8154 12.6996 20.9222 15.8179 20.9222 19C20.9222 22.1821 21.8154 25.3004 23.5 28M24.5 10C26.1847 12.6996 27.0778 15.8179 27.0778 19C27.0778 22.1821 26.1847 25.3004 24.5 28M33 19C33 23.9706 28.9706 28 24 28C19.0294 28 15 23.9706 15 19C15 14.0294 19.0294 10 24 10C28.9706 10 33 14.0294 33 19Z" stroke="#318B89" stroke-width="2" stroke-linecap="round" stroke-linejoin="round"/>
<path d="M47.884 17.176C47.524 17.524 46.9 17.584 46.156 17.584V16.684C47.704 16.636 47.992 16.204 48.124 15.208H48.964V23.5H47.884V17.176ZM53.6343 23.668C51.3663 23.668 50.4423 21.712 50.4423 19.36C50.4423 17.008 51.3663 15.04 53.6343 15.04C55.9023 15.04 56.8263 17.008 56.8263 19.36C56.8263 21.712 55.9023 23.668 53.6343 23.668ZM51.5703 19.36C51.5703 21.124 52.0503 22.708 53.6343 22.708C55.2183 22.708 55.6983 21.124 55.6983 19.36C55.6983 17.596 55.2183 16 53.6343 16C52.0503 16 51.5703 17.596 51.5703 19.36ZM61.0992 23.668C58.8312 23.668 57.9072 21.712 57.9072 19.36C57.9072 17.008 58.8312 15.04 61.0992 15.04C63.3672 15.04 64.2912 17.008 64.2912 19.36C64.2912 21.712 63.3672 23.668 61.0992 23.668ZM59.0352 19.36C59.0352 21.124 59.5152 22.708 61.0992 22.708C62.6832 22.708 63.1632 21.124 63.1632 19.36C63.1632 17.596 62.6832 16 61.0992 16C59.5152 16 59.0352 17.596 59.0352 19.36ZM66.932 23.5L71.552 15.208H72.512L67.892 23.5H66.932ZM65.096 17.416C65.096 16.132 65.708 15.04 67.064 15.04C68.396 15.04 69.032 16.132 69.032 17.416C69.032 18.7 68.42 19.792 67.064 19.792C65.732 19.792 65.096 18.7 65.096 17.416ZM65.972 17.416C65.972 18.352 66.332 18.988 67.064 18.988C67.796 18.988 68.156 18.352 68.156 17.416C68.156 16.48 67.796 15.844 67.064 15.844C66.332 15.844 65.972 16.48 65.972 17.416ZM70.424 21.292C70.424 20.008 71.036 18.916 72.392 18.916C73.724 18.916 74.36 20.008 74.36 21.292C74.36 22.576 73.748 23.668 72.392 23.668C71.06 23.668 70.424 22.576 70.424 21.292ZM71.3 21.292C71.3 22.228 71.66 22.864 72.392 22.864C73.124 22.864 73.484 22.228 73.484 21.292C73.484 20.356 73.124 19.72 72.392 19.72C71.66 19.72 71.3 20.356 71.3 21.292ZM81.8396 23.668C79.3196 23.668 77.6396 21.784 77.6396 19.204C77.6396 16.624 79.3196 14.752 81.8396 14.752C84.3596 14.752 86.0396 16.624 86.0396 19.204C86.0396 21.784 84.3596 23.668 81.8396 23.668ZM78.7676 19.204C78.7676 21.052 79.6796 22.708 81.8396 22.708C83.9996 22.708 84.9116 21.052 84.9116 19.204C84.9116 17.356 83.9996 15.712 81.8396 15.712C79.6796 15.712 78.7676 17.356 78.7676 19.204ZM87.388 23.5V14.92H88.708L92.992 21.964H93.016V14.92H94.096V23.5H92.776L88.492 16.456H88.468V23.5H87.388ZM95.8724 23.5V14.92H96.9524V22.54H101.452V23.5H95.8724ZM102.517 23.5V14.92H103.597V23.5H102.517ZM105.376 23.5V14.92H106.696L110.98 21.964H111.004V14.92H112.084V23.5H110.764L106.48 16.456H106.456V23.5H105.376ZM113.861 23.5V14.92H119.801V15.88H114.941V18.58H119.225V19.54H114.941V22.54H119.945V23.5H113.861Z" fill="#47837B"/>
<rect x="148" width="181" height="38" rx="8" fill="#10302C"/>
<path d="M169.001 19L171.001 21L175.001 17M172.001 10C174.337 12.0666 177.385 13.1426 180.501 13C180.954 14.543 181.093 16.1615 180.909 17.7592C180.725 19.3569 180.221 20.9013 179.428 22.3005C178.635 23.6998 177.569 24.9254 176.293 25.9045C175.017 26.8836 173.558 27.5962 172.001 28C170.444 27.5962 168.984 26.8836 167.708 25.9045C166.432 24.9254 165.366 23.6998 164.573 22.3005C163.78 20.9013 163.277 19.3569 163.093 17.7592C162.908 16.1615 163.047 14.543 163.501 13C166.616 13.1426 169.665 12.0666 172.001 10Z" stroke="#318B89" stroke-width="2" stroke-linecap="round" stroke-linejoin="round"/>
<path d="M197.708 23.668C195.596 23.668 194.42 22.564 194.42 20.692H195.548C195.548 21.892 196.052 22.708 197.624 22.708C199.052 22.708 199.52 22.12 199.52 21.172C199.52 19.924 198.62 19.648 197.816 19.648H196.928V18.688H197.768C198.62 18.688 199.22 18.292 199.22 17.332C199.22 16.66 198.812 16 197.684 16C196.064 16 195.764 16.876 195.764 17.692H194.636C194.636 16.168 195.632 15.04 197.684 15.04C199.1 15.04 200.348 15.868 200.348 17.332C200.348 18.208 199.916 18.76 199.076 19.096V19.12C200.192 19.468 200.648 20.2 200.648 21.172C200.648 22.756 199.484 23.668 197.708 23.668ZM204.892 23.668C202.624 23.668 201.7 21.712 201.7 19.36C201.7 17.008 202.624 15.04 204.892 15.04C207.16 15.04 208.084 17.008 208.084 19.36C208.084 21.712 207.16 23.668 204.892 23.668ZM202.828 19.36C202.828 21.124 203.308 22.708 204.892 22.708C206.476 22.708 206.956 21.124 206.956 19.36C206.956 17.596 206.476 16 204.892 16C203.308 16 202.828 17.596 202.828 19.36ZM212.079 23.5V14.92H215.187C217.551 14.92 219.003 16.456 219.003 19.216C219.003 21.976 217.551 23.5 215.187 23.5H212.079ZM213.159 22.54H215.187C217.371 22.54 217.875 20.896 217.875 19.216C217.875 17.536 217.371 15.88 215.187 15.88H213.159V22.54ZM220.376 23.5V14.92H221.456V23.5H220.376ZM222.432 23.5L225.6 14.92H226.812L230.004 23.5H228.84L228.084 21.352H224.304L223.548 23.5H222.432ZM224.664 20.392H227.736L226.212 15.916H226.188L224.664 20.392ZM233.904 23.668C231.756 23.668 230.268 22.54 230.148 20.62H231.276C231.396 21.808 232.068 22.72 233.856 22.72C235.404 22.72 235.836 22.036 235.836 21.16C235.836 19.96 234.996 19.816 233.328 19.396C232.032 19.072 230.508 18.676 230.508 17.02C230.508 15.652 231.564 14.752 233.412 14.752C235.356 14.752 236.544 15.736 236.688 17.464H235.56C235.404 16.312 234.804 15.7 233.424 15.7C232.224 15.7 231.636 16.156 231.636 16.972C231.636 18.04 232.668 18.256 233.772 18.52C235.44 18.916 236.964 19.3 236.964 21.124C236.964 22.54 236.04 23.668 233.904 23.668ZM240.79 23.5V14.92H243.898C246.262 14.92 247.714 16.456 247.714 19.216C247.714 21.976 246.262 23.5 243.898 23.5H240.79ZM241.87 22.54H243.898C246.082 22.54 246.586 20.896 246.586 19.216C246.586 17.536 246.082 15.88 243.898 15.88H241.87V22.54ZM249.087 23.5V14.92H255.027V15.88H250.167V18.58H254.451V19.54H250.167V22.54H255.171V23.5H249.087ZM262.445 23.668C259.949 23.668 258.581 21.796 258.581 19.204C258.581 16.624 260.189 14.752 262.565 14.752C264.737 14.752 265.877 15.88 266.177 17.512H265.049C264.797 16.288 263.861 15.712 262.565 15.712C260.525 15.712 259.709 17.596 259.709 19.204C259.709 20.824 260.285 22.708 262.445 22.708C263.981 22.708 265.241 21.604 265.241 19.996H262.445V19.036H266.321V23.5H265.601L265.241 22.288H265.217C264.569 23.188 263.765 23.668 262.445 23.668ZM266.998 23.5L270.166 14.92H271.378L274.57 23.5H273.406L272.65 21.352H268.87L268.114 23.5H266.998ZM269.23 20.392H272.302L270.778 15.916H270.754L269.23 20.392ZM275.525 23.5V14.92H278.969C280.853 14.92 281.837 15.808 281.837 17.392C281.837 18.46 281.177 19.276 280.277 19.492V19.516C282.209 19.888 281.501 23.284 281.957 23.428V23.5H280.793C280.421 23.14 281.237 20.032 279.065 20.032H276.605V23.5H275.525ZM276.605 19.072H278.717C280.025 19.072 280.757 18.484 280.757 17.416C280.757 16.432 280.205 15.88 278.753 15.88H276.605V19.072ZM282.479 23.5L285.647 14.92H286.859L290.051 23.5H288.887L288.131 21.352H284.351L283.595 23.5H282.479ZM284.711 20.392H287.783L286.259 15.916H286.235L284.711 20.392ZM291.005 23.5V14.92H292.325L296.609 21.964H296.633V14.92H297.713V23.5H296.393L292.109 16.456H292.085V23.5H291.005ZM301.638 23.5V15.88H298.782V14.92H305.574V15.88H302.718V23.5H301.638ZM306.638 23.5V14.92H307.718V23.5H306.638ZM308.693 23.5L311.861 14.92H313.073L316.265 23.5H315.101L314.345 21.352H310.565L309.809 23.5H308.693ZM310.925 20.392H313.997L312.473 15.916H312.449L310.925 20.392Z" fill="#47837B"/>
<rect x="344" width="159" height="38" rx="8" fill="#10302C"/>
<path d="M364 18V13C364 11.9391 364.421 10.9217 365.172 10.1716C365.922 9.42143 366.939 9 368 9C369.061 9 370.078 9.42143 370.828 10.1716C371.579 10.9217 372 11.9391 372 13M363 18H373C374.105 18 375 18.8954 375 20V26C375 27.1046 374.105 28 373 28H363C361.895 28 361 27.1046 361 26V20C361 18.8954 361.895 18 363 18ZM369 23C369 23.5523 368.552 24 368 24C367.448 24 367 23.5523 367 23C367 22.4477 367.448 22 368 22C368.552 22 369 22.4477 369 23Z" stroke="#318B89" stroke-width="2" stroke-linecap="round" stroke-linejoin="round"/>
<path d="M394.428 23.668C392.076 23.668 390.456 21.796 390.456 19.204C390.456 16.624 392.076 14.752 394.428 14.752C396.528 14.752 397.872 16.12 398.076 17.752H396.948C396.792 16.936 396.216 15.712 394.428 15.712C392.388 15.712 391.584 17.476 391.584 19.204C391.584 20.944 392.388 22.708 394.428 22.708C396.228 22.708 396.876 21.484 396.948 20.404H398.076C397.884 22.3 396.54 23.668 394.428 23.668ZM403.094 23.668C400.574 23.668 398.894 21.784 398.894 19.204C398.894 16.624 400.574 14.752 403.094 14.752C405.614 14.752 407.294 16.624 407.294 19.204C407.294 21.784 405.614 23.668 403.094 23.668ZM400.021 19.204C400.021 21.052 400.934 22.708 403.094 22.708C405.254 22.708 406.166 21.052 406.166 19.204C406.166 17.356 405.254 15.712 403.094 15.712C400.934 15.712 400.021 17.356 400.021 19.204ZM408.642 23.5V14.92H410.118L412.806 22.048H412.83L415.518 14.92H416.994V23.5H415.914V16.444H415.89L413.298 23.5H412.338L409.746 16.444H409.722V23.5H408.642ZM418.767 23.5V14.92H422.175C423.747 14.92 424.959 15.616 424.959 17.416C424.959 19.216 423.747 19.912 422.175 19.912H419.847V23.5H418.767ZM419.847 18.952H422.247C423.315 18.952 423.831 18.46 423.831 17.416C423.831 16.372 423.315 15.88 422.247 15.88H419.847V18.952ZM426.115 23.5V14.92H429.559C431.443 14.92 432.427 15.808 432.427 17.392C432.427 18.46 431.767 19.276 430.867 19.492V19.516C432.799 19.888 432.091 23.284 432.547 23.428V23.5H431.383C431.011 23.14 431.827 20.032 429.655 20.032H427.195V23.5H426.115ZM427.195 19.072H429.307C430.615 19.072 431.347 18.484 431.347 17.416C431.347 16.432 430.795 15.88 429.343 15.88H427.195V19.072ZM433.068 23.5L436.236 14.92H437.448L440.64 23.5H439.476L438.72 21.352H434.94L434.184 23.5H433.068ZM435.3 20.392H438.372L436.848 15.916H436.824L435.3 20.392ZM446.954 23.668C444.806 23.668 443.318 22.54 443.198 20.62H444.326C444.446 21.808 445.118 22.72 446.906 22.72C448.454 22.72 448.886 22.036 448.886 21.16C448.886 19.96 448.046 19.816 446.378 19.396C445.082 19.072 443.558 18.676 443.558 17.02C443.558 15.652 444.614 14.752 446.462 14.752C448.406 14.752 449.594 15.736 449.738 17.464H448.61C448.454 16.312 447.854 15.7 446.474 15.7C445.274 15.7 444.686 16.156 444.686 16.972C444.686 18.04 445.718 18.256 446.822 18.52C448.49 18.916 450.014 19.3 450.014 21.124C450.014 22.54 449.09 23.668 446.954 23.668ZM451.275 23.5V14.92H457.215V15.88H452.355V18.58H456.639V19.54H452.355V22.54H457.359V23.5H451.275ZM461.844 23.668C459.348 23.668 457.98 21.796 457.98 19.204C457.98 16.624 459.588 14.752 461.964 14.752C464.136 14.752 465.276 15.88 465.576 17.512H464.448C464.196 16.288 463.26 15.712 461.964 15.712C459.924 15.712 459.108 17.596 459.108 19.204C459.108 20.824 459.684 22.708 461.844 22.708C463.38 22.708 464.64 21.604 464.64 19.996H461.844V19.036H465.72V23.5H465L464.64 22.288H464.616C463.968 23.188 463.164 23.668 461.844 23.668ZM470.429 23.668C468.137 23.668 467.141 22.396 467.141 20.644V14.92H468.221V20.644C468.221 22.036 468.941 22.708 470.429 22.708C471.917 22.708 472.637 22.036 472.637 20.644V14.92H473.717V20.644C473.717 22.396 472.721 23.668 470.429 23.668ZM475.427 23.5V14.92H478.871C480.755 14.92 481.739 15.808 481.739 17.392C481.739 18.46 481.079 19.276 480.179 19.492V19.516C482.111 19.888 481.403 23.284 481.859 23.428V23.5H480.695C480.323 23.14 481.139 20.032 478.967 20.032H476.507V23.5H475.427ZM476.507 19.072H478.619C479.927 19.072 480.659 18.484 480.659 17.416C480.659 16.432 480.107 15.88 478.655 15.88H476.507V19.072ZM482.381 23.5L485.549 14.92H486.761L489.953 23.5H488.789L488.033 21.352H484.253L483.497 23.5H482.381ZM484.613 20.392H487.685L486.161 15.916H486.137L484.613 20.392Z" fill="#47837B"/>
</svg>
