<svg width="18" height="19" viewBox="0 0 18 19" fill="none" xmlns="http://www.w3.org/2000/svg">
<path d="M7 14H11M6 5L5 1M12 5L13 1M4 5H14C14.5304 5 15.0391 5.21071 15.4142 5.58579C15.7893 5.96086 16 6.46957 16 7V8L17 9V12L16 13V16C16 16.5304 15.7893 17.0391 15.4142 17.4142C15.0391 17.7893 14.5304 18 14 18H4C3.46957 18 2.96086 17.7893 2.58579 17.4142C2.21071 17.0391 2 16.5304 2 16V13L1 12V9L2 8V7C2 6.46957 2.21071 5.96086 2.58579 5.58579C2.96086 5.21071 3.46957 5 4 5ZM6 9.5C6 9.77614 5.77614 10 5.5 10C5.22386 10 5 9.77614 5 9.5C5 9.22386 5.22386 9 5.5 9C5.77614 9 6 9.22386 6 9.5ZM13 9.5C13 9.77614 12.7761 10 12.5 10C12.2239 10 12 9.77614 12 9.5C12 9.22386 12.2239 9 12.5 9C12.7761 9 13 9.22386 13 9.5Z" stroke="url(#paint0_linear_94_361)" stroke-width="2" stroke-linecap="round" stroke-linejoin="round"/>
<defs>
<linearGradient id="paint0_linear_94_361" x1="0.192965" y1="1.02766" x2="17.7256" y2="1.02766" gradientUnits="userSpaceOnUse">
<stop stop-color="#5E9EFF"/>
<stop offset="1" stop-color="#3D3ADB"/>
</linearGradient>
</defs>
</svg>
