<svg width="18" height="18" viewBox="0 0 18 18" fill="none" xmlns="http://www.w3.org/2000/svg">
<path d="M1 5V3C1 2.46957 1.21071 1.96086 1.58579 1.58579C1.96086 1.21071 2.46957 1 3 1H5M1 13V15C1 15.5304 1.21071 16.0391 1.58579 16.4142C1.96086 16.7893 2.46957 17 3 17H5M13 1H15C15.5304 1 16.0391 1.21071 16.4142 1.58579C16.7893 1.96086 17 2.46957 17 3V5M13 17H15C15.5304 17 16.0391 16.7893 16.4142 16.4142C16.7893 16.0391 17 15.5304 17 15V13M9 8V8.01M9 15L5.5 10C5.16307 9.39103 4.99085 8.70469 5.00037 8.00879C5.00989 7.3129 5.20082 6.63152 5.55428 6.032C5.90774 5.43248 6.41151 4.93555 7.01582 4.59032C7.62012 4.24509 8.30404 4.06351 9 4.06351C9.69596 4.06351 10.3799 4.24509 10.9842 4.59032C11.5885 4.93555 12.0923 5.43248 12.4457 6.032C12.7992 6.63152 12.9901 7.3129 12.9996 8.00879C13.0091 8.70469 12.8369 9.39103 12.5 10L9 15Z" stroke="url(#paint0_linear_94_362)" stroke-width="2" stroke-linecap="round" stroke-linejoin="round"/>
<defs>
<linearGradient id="paint0_linear_94_362" x1="0.192965" y1="1.02603" x2="17.7256" y2="1.02603" gradientUnits="userSpaceOnUse">
<stop stop-color="#5E9EFF"/>
<stop offset="1" stop-color="#3D3ADB"/>
</linearGradient>
</defs>
</svg>
